HIERARCHY
ROOT Hips
{
	OFFSET	0.00	0.00	0.00
	CHANNELS 6 Xposition Yposition Zposition Zrotation Xrotation Yrotation
	JOINT LeftUpLeg
	{
		OFFSET	 0.126116	-0.065224	 0.014019
		CHANNELS 3 Zrotation Xrotation Yrotation
		JOINT LeftLeg
		{
			OFFSET	 0.000000	 0.569914	 0.000000
			CHANNELS 3 Zrotation Xrotation Yrotation
			JOINT LeftFoot
			{
				OFFSET	 0.000000	 0.544423	 0.000000
				CHANNELS 3 Zrotation Xrotation Yrotation
				JOINT LeftToeBase
				{
					OFFSET	 0.000000	 0.207117	 0.000000
					CHANNELS 3 Zrotation Xrotation Yrotation
					End Site
					{
						OFFSET	 0.000000	 0.207117	 0.000000
					}
				}
			}
		}
	}
	JOINT RightUpLeg
	{
		OFFSET	-0.124023	-0.065224	 0.008373
		CHANNELS 3 Zrotation Xrotation Yrotation
		JOINT RightLeg
		{
			OFFSET	 0.000000	 0.570047	 0.000000
			CHANNELS 3 Zrotation Xrotation Yrotation
			JOINT RightFoot
			{
				OFFSET	 0.000000	 0.544354	 0.000000
				CHANNELS 3 Zrotation Xrotation Yrotation
				JOINT RightToeBase
				{
					OFFSET	 0.000000	 0.207540	 0.000000
					CHANNELS 3 Zrotation Xrotation Yrotation
					End Site
					{
						OFFSET	 0.000000	 0.207540	 0.000000
					}
				}
			}
		}
	}
	JOINT Spine
	{
		OFFSET	 0.000184	 0.117403	 0.007763
		CHANNELS 3 Zrotation Xrotation Yrotation
		JOINT Spine1
		{
			OFFSET	 0.000000	 0.137269	 0.000000
			CHANNELS 3 Zrotation Xrotation Yrotation
			JOINT Spine2
			{
				OFFSET	 0.000000	 0.156879	 0.000000
				CHANNELS 3 Zrotation Xrotation Yrotation
				JOINT LeftShoulder
				{
					OFFSET	 0.080501	 0.160143	 0.002496
					CHANNELS 3 Zrotation Xrotation Yrotation
					JOINT LeftArm
					{
						OFFSET	 0.000000	 0.164363	 0.000000
						CHANNELS 3 Zrotation Xrotation Yrotation
						JOINT LeftForeArm
						{
							OFFSET	 0.000000	 0.364576	 0.000000
							CHANNELS 3 Zrotation Xrotation Yrotation
							JOINT LeftHand
							{
								OFFSET	 0.000000	 0.360812	 0.000000
								CHANNELS 3 Zrotation Xrotation Yrotation
								JOINT LeftHandIndex1
								{
									OFFSET	 0.000000	 0.086006	 0.000000
									CHANNELS 3 Zrotation Xrotation Yrotation
									JOINT LeftHandIndex2
									{
										OFFSET	 0.000000	 0.047237	 0.000000
										CHANNELS 3 Zrotation Xrotation Yrotation
										JOINT LeftHandIndex3
										{
											OFFSET	-0.004284	 0.038165	 0.000551
											CHANNELS 3 Zrotation Xrotation Yrotation
											End Site
											{
												OFFSET	-0.004284	 0.038165	 0.000551
											}
										}
									}
								}
							}
						}
					}
				}
				JOINT Neck
				{
					OFFSET	 0.000000	 0.176489	 0.000000
					CHANNELS 3 Zrotation Xrotation Yrotation
					JOINT Head
					{
						OFFSET	 0.000000	 0.077941	 0.001747
						CHANNELS 3 Zrotation Xrotation Yrotation
						End Site
						{
							OFFSET	 0.000000	 0.077941	 0.001747
						}
					}
				}
				JOINT RightShoulder
				{
					OFFSET	-0.080363	 0.159706	-0.000306
					CHANNELS 3 Zrotation Xrotation Yrotation
					JOINT RightArm
					{
						OFFSET	 0.000000	 0.164196	 0.000000
						CHANNELS 3 Zrotation Xrotation Yrotation
						JOINT RightForeArm
						{
							OFFSET	 0.000000	 0.365611	 0.000000
							CHANNELS 3 Zrotation Xrotation Yrotation
							JOINT RightHand
							{
								OFFSET	 0.000000	 0.360648	 0.000000
								CHANNELS 3 Zrotation Xrotation Yrotation
								JOINT RightHandIndex1
								{
									OFFSET	 0.000000	 0.069977	 0.000000
									CHANNELS 3 Zrotation Xrotation Yrotation
									JOINT RightHandIndex2
									{
										OFFSET	 0.000000	 0.052305	 0.000000
										CHANNELS 3 Zrotation Xrotation Yrotation
										JOINT RightHandIndex3
										{
											OFFSET	 0.009002	 0.042196	 0.000782
											CHANNELS 3 Zrotation Xrotation Yrotation
											End Site
											{
												OFFSET	 0.009002	 0.042196	 0.000782
											}
										}
									}
								}
							}
						}
					}
				}
			}
		}
	}
}
MOTION
Frames:    13
Frame Time: 0.03333334
-0.059690	 1.255499	-0.040710	 1.857008	-2.571175	-178.541800	-163.600900	 18.051050	-26.686970	 6.536292	-23.150250	 9.333497	 6.968363	 62.171000	-11.046420	 1.149440	 26.518860	-2.654681	 168.141500	 7.940409	 36.333080	-2.362745	-28.552430	 11.100090	 19.577700	 75.221320	-17.267400	-1.354925	 29.232570	 2.738934	-2.237457	 6.170030	 21.946520	-7.663635	 4.244088	 7.754029	 7.853104	-3.231655	-13.240030	-105.982100	 3.573455	 92.731220	 11.336160	 55.372630	 15.530980	 22.553710	-0.273113	 22.310770	 48.204470	-9.958549	 68.864730	 2.590797	 43.036250	-1.242895	-6.854273	 49.037570	 6.098334	 6.192001	 24.943820	 0.055238	 4.049319	-8.335178	-1.889580	 0.763868	-6.849336	-5.226073	 111.744500	 20.003350	-97.711910	 23.182450	 24.143800	-25.407100	-72.282680	-1.488293	-23.708580	 30.874550	-28.149470	-18.363570	-2.964479	 6.280861	 0.470290	 12.751000	 25.583010	-5.819877	-8.523971	 16.436850	-0.736782
-0.029432	 1.256520	-0.024589	 1.001383	-1.684516	 178.010100	-162.114200	 14.571500	-30.460560	 5.185969	-18.753120	 5.374467	-1.253637	 59.573570	-3.158773	 1.150423	 26.532260	-2.655071	 169.439300	 8.178619	 33.117330	-2.250668	-27.399600	 10.440210	 18.979880	 74.227510	-15.521180	-1.344345	 29.095640	 2.734309	 1.015033	 6.152318	 2.104932	-6.739587	 3.928940	 6.775884	 7.675276	-3.167193	-12.356440	-107.324300	 4.176351	 92.734120	 16.243770	 50.922480	 12.016030	 24.960270	-0.272893	 25.384070	 45.261520	-12.952620	 56.264650	 1.267017	 24.162530	-0.499456	-5.909205	 29.491930	 3.289006	 5.542837	 9.352597	-0.086995	 3.930411	-8.019233	-1.349892	 0.146237	-6.710101	-2.870821	 114.674000	 17.587060	-97.462750	 20.231120	 35.578720	-24.964820	-54.778210	-1.095898	-26.127160	 19.348110	-16.999180	-13.715040	-2.563345	 4.876241	 0.757468	 12.556430	 23.150340	-5.220357	-8.507284	 13.889730	-0.575246
-0.010689	 1.257539	-0.011055	 0.595554	-0.930419	 175.310600	-161.582800	 11.596470	-33.221100	 4.038725	-14.818040	 2.231074	-6.416829	 56.898640	 2.125498	 1.151807	 26.551080	-2.655620	 170.200700	 8.589684	 30.847810	-2.228899	-27.172770	 9.628429	 16.224680	 73.778830	-12.670390	-1.335522	 28.981030	 2.730471	 3.548148	 5.195766	-15.094030	-5.975971	 3.777936	 5.914331	 7.539367	-3.152676	-11.743510	-108.640600	 4.698626	 92.739490	 19.382200	 47.593150	 8.949508	 28.256850	-0.388915	 26.435260	 36.332180	-4.308756	 45.563190	 0.732467	 13.830480	-0.333898	-5.879163	 18.832520	 2.084674	 5.177684	 0.781208	-0.238278	 3.768460	-7.838791	-0.882981	-0.320942	-6.550805	-1.201993	 116.986600	 15.537180	-97.164600	 5.077070	 40.974660	-13.083990	-25.721920	-0.205062	-26.374580	 0.610470	 0.857653	-12.407970	-2.379960	 4.272672	 0.898444	 12.482290	 22.103880	-4.968623	-8.497815	 12.785670	-0.505529
-0.000697	 1.258557	 0.001191	 0.545590	-0.180731	 172.942300	-161.569900	 9.258336	-35.503720	 3.217023	-11.903060	-0.195394	-9.674438	 54.651780	 5.724289	 1.153765	 26.577670	-2.656398	 170.553800	 9.250297	 29.191420	-2.295945	-27.868260	 8.616249	 11.159290	 73.637700	-8.551945	-1.327245	 28.873140	 2.726885	 5.307330	 4.033137	-27.660440	-5.125302	 3.469488	 4.927221	 7.381635	-3.039050	-11.307720	-110.104600	 5.210993	 92.747560	 19.703730	 45.282810	 6.709951	 35.385200	-0.766010	 24.922260	 24.592050	 12.150720	 38.321140	 0.593911	 10.340000	-0.327686	-5.920821	 15.297690	 1.702627	 5.047687	-2.149580	-0.302517	 3.544934	-7.767297	-0.425729	-0.711436	-6.341189	 0.019333	 119.016700	 13.572280	-96.817630	 4.053729	 37.767450	-10.162790	-26.840060	-0.293281	-24.681100	 0.432273	 19.768930	-11.574190	-2.389305	 4.369548	 0.908758	 12.493880	 22.272830	-5.009044	-8.499244	 12.943590	-0.515497
 0.002298	 1.257737	 0.007013	 0.612457	 0.193724	 171.923200	-161.240800	 8.937325	-36.622270	 3.302441	-12.209400	-0.660920	-10.607610	 54.430640	 6.554693	 1.155733	 26.604320	-2.657175	 170.612200	 9.640224	 28.533570	-2.375294	-28.679940	 8.086139	 9.010700	 73.680990	-6.667145	-1.318156	 28.754520	 2.722967	 5.824313	 3.689227	-29.944990	-4.825549	 3.344312	 4.543874	 7.331248	-2.894458	-11.013650	-111.164500	 5.615444	 92.783080	 23.230920	 44.739850	 3.190605	 29.698920	-0.669867	 20.765110	 21.866120	 20.902980	 35.934420	 0.536291	 8.719673	-0.332164	-5.948181	 13.656460	 1.526435	 4.986530	-3.501039	-0.334434	 3.401159	-7.606205	-0.055423	-0.958126	-6.171242	 0.589244	 120.498200	 12.311080	-96.604220	 4.817589	 35.696850	-9.263279	-29.275110	-0.493845	-20.715970	 3.305130	 27.466690	-9.125608	-2.385148	 4.482475	 0.911220	 12.505240	 22.436350	-5.048242	-8.499900	 13.017170	-0.520142
 0.000004	 1.254894	 0.008803	 0.846847	 0.328130	 172.048000	-160.415800	 10.391410	-36.792860	 4.216312	-15.438060	 0.842869	-9.322654	 56.017730	 4.717308	 1.158067	 26.635850	-2.658094	 170.418500	 9.893991	 28.808430	-2.492082	-29.851710	 7.914424	 9.286935	 74.020470	-6.683845	-1.306617	 28.603660	 2.718020	 5.464194	 4.437088	-22.753230	-4.687011	 2.974270	 4.366795	 7.251703	-2.474234	-10.800440	-112.008500	 5.983882	 92.847110	 23.522240	 45.940560	 2.749727	 22.340710	-0.576246	 14.165600	 20.378790	 19.715480	 35.603960	 0.548439	 8.690501	-0.341892	-5.948739	 13.625930	 1.523158	 4.986328	-3.505442	-0.334541	 3.310962	-7.324702	 0.294223	-1.102266	-6.005842	 0.605642	 121.696600	 11.522340	-96.525010	 3.423858	 34.719670	-7.854620	-26.986000	-0.603671	-14.226600	 6.488650	 21.519300	-5.536038	-2.366597	 4.632017	 0.906163	 12.518440	 22.623980	-5.093310	-8.499919	 13.019010	-0.520257
-0.002536	 1.252893	 0.009228	 1.025083	 0.408180	 172.160600	-159.853200	 11.351290	-36.936810	 4.854119	-17.632490	 2.005605	-8.148473	 57.111700	 3.179522	 1.160011	 26.662100	-2.658860	 170.255300	 9.993869	 29.119830	-2.619283	-30.613570	 7.686273	 9.518106	 74.214670	-6.668633	-1.297033	 28.478050	 2.713933	 4.526206	 5.499500	-10.730670	-4.816978	 2.834107	 4.462893	 7.286650	-2.219208	-10.625130	-112.712100	 6.289907	 92.904600	 23.800760	 46.936140	 2.370978	 14.668860	-0.457512	 7.463189	 24.483300	 11.444390	 33.935860	 0.558549	 8.666210	-0.349986	-5.949205	 13.600520	 1.520429	 4.986161	-3.509108	-0.334630	 3.234586	-7.090735	 0.585521	-1.222829	-5.867533	 0.619104	 122.692900	 10.866980	-96.446420	 1.985639	 33.942010	-6.495627	-23.275890	-0.667530	-7.578946	 8.762286	 8.050242	-1.586192	-2.351138	 4.756527	 0.901914	 12.529560	 22.780190	-5.130917	-8.499931	 13.020540	-0.520352
-0.004243	 1.251742	 0.009597	 1.171054	 0.413805	 172.307100	-159.463900	 12.022050	-37.094880	 5.277007	-19.003500	 2.960018	-7.022049	 57.720010	 1.822819	 1.161746	 26.685500	-2.659543	 170.143800	 10.091030	 29.372890	-2.633597	-31.111050	 7.709614	 9.775908	 74.292340	-6.781417	-1.289567	 28.380070	 2.710763	 3.170529	 6.415092	 2.827090	-4.809162	 2.656437	 4.467591	 7.256216	-1.946380	-10.477010	-113.197800	 6.491419	 92.939900	 24.807020	 47.360500	 1.277121	 5.932489	-0.265347	 0.975266	 31.074260	 0.722912	 32.354650	 0.563002	 8.651043	-0.355671	-5.949583	 13.579930	 1.518224	 4.985998	-3.512622	-0.334715	 3.183780	-6.868431	 0.836457	-1.251301	-5.746147	 0.628905	 123.427900	 10.389840	-96.384150	 0.873168	 33.485880	-5.514420	-18.770260	-0.694476	-1.104647	 10.543480	-8.170789	 1.990900	-2.321325	 4.844301	 0.897390	 12.533310	 22.832520	-5.143535	-8.499914	 13.017720	-0.520161
-0.003334	 1.252658	 0.009166	 1.198956	 0.472081	 172.213900	-159.396500	 11.760700	-37.390360	 5.191982	-18.773270	 2.504165	-7.600114	 57.507310	 2.549466	 1.160832	 26.673180	-2.659184	 170.183400	 9.940015	 29.607770	-2.642592	-30.951170	 7.653544	 9.516397	 74.171330	-6.599788	-1.292993	 28.425000	 2.712216	 2.982348	 6.584327	 5.266691	-5.438923	 2.874745	 4.704779	 7.555855	-2.185563	-10.547520	-113.009400	 6.418910	 92.930020	 23.041670	 47.097480	 2.949266	 5.107094	-0.263925	-0.072129	 35.452440	-1.498551	 31.350480	 0.562817	 8.655952	-0.353403	-5.949403	 13.589780	 1.519277	 4.986089	-3.510656	-0.334667	 3.201986	-6.992054	 0.708577	-1.273890	-5.808997	 0.624799	 123.113100	 10.590680	-96.409770	 0.543509	 34.327290	-5.620816	-16.422650	-0.637357	-0.033329	 9.500423	-9.286391	 2.634043	-2.344607	 4.809104	 0.900110	 12.534290	 22.846160	-5.146821	-8.499937	 13.021190	-0.520392
-0.002338	 1.252327	 0.009141	 1.242585	 0.512869	 172.166000	-159.107700	 11.850760	-37.844190	 5.324552	-19.216600	 1.815667	-9.008067	 57.514000	 4.104214	 1.159323	 26.652810	-2.658589	 170.123100	 9.913076	 29.890630	-2.636647	-31.265110	 7.781154	 9.751258	 74.387600	-6.845713	-1.300421	 28.522480	 2.715376	 3.073935	 6.657170	 5.285058	-6.451643	 2.706806	 4.740760	 8.052572	-2.297609	-10.662460	-112.463200	 6.181737	 92.883800	 22.162520	 48.300720	 3.807931	 5.087730	-0.262877	-0.072170	 37.937060	-3.854936	 31.497520	 0.554974	 8.674802	-0.347123	-5.949040	 13.609510	 1.521394	 4.986219	-3.507811	-0.334599	 3.261734	-7.173448	 0.482468	-1.180126	-5.916509	 0.614346	 122.340700	 11.098630	-96.475520	-2.681004	 35.867460	-4.171809	-12.218150	-0.477222	 0.007451	 8.204126	-6.942960	 1.995634	-2.356608	 4.712487	 0.903421	 12.525610	 22.724940	-5.117606	-8.499927	 13.020000	-0.520318
-0.001327	 1.252189	 0.008990	 1.291225	 0.550564	 172.157800	-158.875300	 11.872150	-38.178620	 5.403414	-19.479190	 1.366548	-9.958187	 57.465690	 5.150615	 1.158388	 26.640190	-2.658221	 170.114000	 9.835953	 30.158080	-2.656382	-31.454980	 7.815266	 9.846301	 74.542160	-6.939998	-1.305032	 28.582900	 2.717343	 3.141591	 6.714842	 5.289497	-7.287957	 2.494431	 4.736171	 8.461380	-2.322501	-10.728100	-112.124800	 6.034515	 92.856360	 21.261680	 49.247430	 4.660076	 5.068723	-0.261976	-0.072222	 39.622590	-5.458531	 31.845470	 0.550110	 8.686488	-0.343230	-5.948816	 13.621730	 1.522707	 4.986300	-3.506048	-0.334556	 3.298421	-7.286012	 0.342349	-1.122153	-5.983021	 0.607885	 121.861400	 11.413940	-96.512800	-7.353230	 36.965980	-1.602300	-5.918469	-0.232473	 0.046538	 5.843253	-5.563881	 1.647668	-2.364043	 4.652592	 0.905463	 12.520270	 22.649790	-5.099520	-8.499919	 13.019260	-0.520272
-0.000554	 1.252153	 0.008736	 1.328967	 0.585825	 172.150800	-158.683200	 11.884430	-38.492630	 5.472997	-19.710120	 1.019605	-10.675620	 57.415450	 5.955714	 1.157683	 26.630660	-2.657943	 170.086300	 9.758264	 30.424540	-2.672856	-31.612670	 7.840572	 9.928396	 74.649640	-7.019341	-1.308513	 28.628480	 2.718831	 3.189371	 6.762714	 5.273571	-7.908119	 2.245179	 4.692239	 8.768702	-2.296639	-10.775240	-111.869600	 5.923346	 92.836190	 20.502480	 50.001700	 5.391954	 5.052258	-0.261055	-0.072299	 40.891970	-6.681766	 32.121050	 0.546441	 8.695300	-0.340292	-5.948647	 13.630950	 1.523697	 4.986362	-3.504718	-0.334524	 3.325915	-7.370970	 0.236692	-1.078507	-6.033095	 0.602938	 121.499600	 11.651990	-96.539180	-8.511135	 37.758890	-1.019625	-5.105309	-0.200726	 0.049659	 6.094157	-4.430331	 1.338571	-2.369650	 4.607417	 0.906999	 12.516250	 22.593110	-5.085889	-8.499915	 13.018710	-0.520238
-0.000097	 1.252268	 0.008474	 1.349344	 0.611122	 172.143500	-158.548200	 11.890570	-38.781950	 5.525151	-19.882740	 0.788770	-11.109460	 57.357780	 6.472104	 1.157220	 26.624420	-2.657761	 170.034700	 9.696750	 30.688480	-2.684814	-31.726840	 7.856771	 9.978040	 74.692930	-7.070873	-1.310796	 28.658350	 2.719809	 3.215818	 6.794856	 5.248783	-8.275844	 2.027921	 4.635234	 8.954498	-2.251331	-10.805220	-111.702500	 5.850449	 92.823270	 19.996580	 50.487500	 5.889149	 5.042270	-0.260575	-0.072360	 41.698540	-7.467139	 32.264030	 0.544036	 8.701076	-0.338366	-5.948536	 13.637000	 1.524346	 4.986401	-3.503846	-0.334502	 3.343852	-7.426682	 0.167453	-1.049934	-6.065869	 0.599689	 121.262400	 11.808090	-96.555650	-8.924136	 38.252380	-0.834962	-5.092153	-0.200276	 0.049782	 6.517393	-3.654669	 1.096707	-2.373324	 4.577809	 0.908002	 12.513630	 22.555960	-5.076961	-8.499912	 13.018340	-0.520215
